<?xml version="1.0" encoding="UTF-8"?>
<!DOCTYPE svg PUBLIC "-//W3C//DTD SVG 1.1//EN" "http://www.w3.org/Graphics/SVG/1.1/DTD/svg11.dtd">
<!-- Creator: CorelDRAW 2020 (64-Bit) -->
<svg xmlns="http://www.w3.org/2000/svg" xml:space="preserve" width="3.05719in" height="2.96994in" version="1.1" style="shape-rendering:geometricPrecision; text-rendering:geometricPrecision; image-rendering:optimizeQuality; fill-rule:evenodd; clip-rule:evenodd"
viewBox="0 0 959.62 932.23"
 xmlns:xlink="http://www.w3.org/1999/xlink"
 xmlns:xodm="http://www.corel.com/coreldraw/odm/2003">
 <defs>
  <style type="text/css">
   <![CDATA[
    .str0 {stroke:white;stroke-width:2.18;stroke-miterlimit:2.61313}
    .fil0 {fill:white}
   ]]>
  </style>
 </defs>
 <g id="Layer_x0020_1">
  <metadata id="CorelCorpID_0Corel-Layer"/>
  <g id="_1987183764256">
   <path class="fil0 str0" d="M305.85 583.53c-13.33,13.28 -25.84,26.76 -40.23,40.24 -4.03,3.78 -5.19,5.68 -10.15,10.6 -4.66,4.63 -4.7,5.49 -13.04,5.12 -29.86,-1.3 -47.42,25.9 -71.5,50.14 -25.17,25.34 -154.89,152.25 -163.18,164.89 -5.63,8.58 -8.42,20.89 -5.47,32.99 3.75,15.36 26.82,37.57 39.72,41.58 33.08,10.29 52.66,-20.39 76.86,-44.64 18.51,-18.55 150.64,-148.56 163.89,-164.2 11.28,-13.32 7.14,-14.09 10.4,-31.18 1.15,-6.03 55.24,-59.96 62.13,-62.67 6.14,7.93 33.82,29.42 43.56,37.46 38.18,31.53 100.12,77.03 140.78,103.23 10.21,-4.18 32.43,-21.63 42.7,-28.66 55.04,-37.65 99.26,-74.67 149.87,-116.06l28.88 -26.32c13.92,-11.57 9.22,-9.06 18.27,-17.97l69.87 -74.66c-8.77,4.2 -26.89,26.57 -34.89,33.6 -11.92,10.47 -23.03,20.61 -35.72,31.62 -40.91,35.51 -187.54,144.98 -237.27,170.47 -16.05,-6.21 -102.37,-67.68 -120.93,-81.32 -34.89,-25.64 -136.94,-110.15 -171.26,-155.06 -11.2,-14.66 -21.95,-25.78 -34.41,-43.25 -26.95,-37.78 -53.58,-81.74 -66.35,-135.6 -24.19,-102.08 12.34,-232.83 123.61,-268.72 56.26,-18.15 121.22,-1 163.58,24.64 35.25,21.34 54.91,40.96 79.55,72.36 7.81,9.96 12.72,19.34 20.36,29.94 39.84,-47.96 113.97,-129.11 205.57,-143.02 50.64,-7.69 107.2,5.67 143.06,28.98 33.4,21.71 59.34,53.72 74.41,100.96 -3.51,-42.52 -40.86,-99.04 -61.41,-117.4 -29.64,-26.49 -73.18,-51.79 -131.34,-50.5 -61.11,1.35 -134.24,41.19 -171.02,78.15 -5.26,5.29 -6.69,6.85 -11.33,11.07 -15.49,14.11 -33.41,37.06 -43.75,47.29 -38.18,-58.7 -100.75,-121.81 -198.43,-134.64 -106.46,-13.99 -179.56,49.79 -207.82,124.29 -51.91,136.87 5.04,269.19 91.86,369.96l59.78 64.51c7.79,7.83 13,12.9 20.76,21.75z"/>
   <path class="fil0 str0" d="M486.14 640.48c2.97,-89.47 -22.48,-283.37 -92.38,-344.48 -77.1,-67.41 -136.04,119.08 -133.14,131.54 1.08,4.64 14.46,15.03 18.02,18.15l75.21 71.46c5.55,5.85 12.96,11.44 19.29,17.07 17.33,15.4 35.17,34.88 55.89,52.87 11.35,9.85 48.01,47.41 57.1,53.39z"/>
   <path class="fil0 str0" d="M609.44 631.13c7.01,-3.06 0.31,0.57 4.2,-2.51 1.37,-1.09 2.52,-2.45 3.69,-3.73 2.7,-2.93 3.1,-3.29 6.06,-5.9l39.5 -36.51c9.15,-7.99 16.35,-16.41 25.61,-24.44 4.4,-3.82 9.02,-7.3 12.83,-11.37l90.59 -85.52c9.6,-10.87 17.29,-15.27 25.38,-24.18 -2.27,-16.07 -14.13,-47.73 -20.6,-62.13 -9.4,-20.92 -25.52,-49.64 -42.37,-61.27 -38.48,-26.55 -69.2,3.27 -88.51,38.82 -42.37,77.99 -51.96,180.28 -56.36,278.74z"/>
   <path class="fil0 str0" d="M539.61 602.09c4.21,-4.42 53.45,-128.99 62.97,-154.18 6.59,-17.43 11.22,-15.53 1.81,-31 -9.5,-15.61 -26.27,-36.52 -47.75,-40.4 -28.55,-5.15 -45.62,17.43 -55.73,30.22 -20.44,25.87 -13.23,27.37 -2.86,61.21 5.81,18.95 37.16,125.57 41.56,134.14z"/>
   <path class="fil0 str0" d="M335.76 113.22c-88.35,21.23 -56.53,153.1 31.44,132.19 31.3,-7.44 59.57,-40.89 49.95,-81.64 -7.51,-31.8 -39.82,-60.53 -81.39,-50.55z"/>
   <path class="fil0 str0" d="M722.82 147.78c-30.68,5.72 -56.73,34.39 -50.64,71.67 13.28,81.23 138.72,60.03 122.62,-22.36 -5.84,-29.91 -35.21,-56.17 -71.99,-49.31z"/>
   <path class="fil0 str0" d="M549.78 219.96c-81.12,9.97 -67.61,134.17 15.62,123.34 31.5,-4.1 58.21,-33.13 53.26,-70.3 -4.07,-30.63 -32.58,-57.5 -68.88,-53.04z"/>
  </g>
 </g>
</svg>
