<?xml version="1.0" encoding="UTF-8"?>
<!DOCTYPE svg PUBLIC "-//W3C//DTD SVG 1.1//EN" "http://www.w3.org/Graphics/SVG/1.1/DTD/svg11.dtd">
<!-- Creator: CorelDRAW 2020 (64-Bit) -->
<svg xmlns="http://www.w3.org/2000/svg" xml:space="preserve" width="3.09074in" height="2.97385in" version="1.1" style="shape-rendering:geometricPrecision; text-rendering:geometricPrecision; image-rendering:optimizeQuality; fill-rule:evenodd; clip-rule:evenodd"
viewBox="0 0 1280.45 1232.03"
 xmlns:xlink="http://www.w3.org/1999/xlink"
 xmlns:xodm="http://www.corel.com/coreldraw/odm/2003">
 <defs>
  <style type="text/css">
   <![CDATA[
    .str0 {stroke:#6A2278;stroke-width:2.88;stroke-miterlimit:2.61313}
    .fil0 {fill:#6A2278}
   ]]>
  </style>
 </defs>
 <g id="Layer_x0020_1">
  <metadata id="CorelCorpID_0Corel-Layer"/>
  <path class="fil0 str0" d="M404.21 771.19c-17.62,17.55 -34.15,35.37 -53.16,53.19 -5.33,4.99 -6.86,7.5 -13.41,14.01 -6.15,6.11 -6.21,7.25 -17.23,6.77 -39.46,-1.71 -62.67,34.23 -94.49,66.27 -33.27,33.49 -204.71,201.22 -215.66,217.92 -7.43,11.33 -11.13,27.61 -7.23,43.6 4.96,20.3 35.45,49.65 52.49,54.96 43.72,13.6 69.59,-26.95 101.57,-58.99 24.47,-24.51 199.09,-196.34 216.59,-217 14.91,-17.6 9.43,-18.62 13.74,-41.2 1.47,-7.7 68.28,-74.53 80.98,-82.23l7.38 6.04c13.48,12.89 40.61,34.03 51.32,42.88 50.46,41.67 132.32,101.81 186.05,136.43 0.41,-0.17 0.83,-0.35 1.27,-0.55 0.44,0.2 0.86,0.38 1.27,0.55 53.73,-34.63 135.59,-94.76 186.05,-136.43 92.71,-64.66 155.2,-134.12 231.79,-216.77 114.74,-133.17 187.56,-311.48 118.95,-492.38 -31.12,-82.05 -103.41,-154.25 -208.06,-165.34 -1.22,-0.13 -2.44,-0.26 -3.67,-0.38l-0.31 -0.03c-5.75,-0.53 -11.63,-0.88 -17.63,-1 -14.44,-0.35 -29.44,0.44 -44.98,2.48 -124.5,16.36 -205.85,94.52 -256.73,169.66 -2.4,2.65 -4.63,5.04 -6.67,7.11 -2.04,-2.07 -4.27,-4.47 -6.67,-7.12 -50.89,-75.13 -132.23,-153.29 -256.73,-169.65 -14.26,-1.87 -28.05,-2.68 -41.38,-2.53l-0.02 0c-1.16,0.01 -2.33,0.02 -3.48,0.05 -7.47,0.15 -14.75,0.64 -21.84,1.42 -104.59,11.14 -176.82,83.31 -207.93,165.33 -68.61,180.89 6.67,355.76 121.41,488.94l79 85.26c10.29,10.35 17.18,17.04 27.43,28.74zm860.26 202.42c1.79,1.23 2.01,1.33 0.42,0.04l-0.42 -0.04zm-550.05 2.82c-23.58,-10.2 -134.64,-89.3 -158.81,-107.06 -46.11,-33.89 -180.98,-145.58 -226.33,-204.92 -14.81,-19.38 -29,-34.08 -45.47,-57.16 -35.62,-49.93 -70.81,-108.02 -87.69,-179.21 -31.97,-134.91 16.31,-307.71 163.36,-355.14 74.35,-23.98 160.2,-1.32 216.18,32.56 13.48,8.16 25.24,16.13 35.93,24.35 8.01,6.44 15.76,13.04 23.23,19.73 15.85,14.87 30.13,31.37 45.97,51.56 10.33,13.16 23.81,31.59 33.91,45.59 2.16,-2.6 -2.6,-11.3 -0.29,-14.04 2.31,2.74 -1.59,11.57 0.57,14.17 10.09,-14 22.72,-32.55 33.05,-45.71 15.83,-20.18 30.11,-36.67 45.95,-51.53 7.49,-6.7 15.25,-13.31 23.27,-19.77 10.69,-8.21 22.44,-16.18 35.91,-24.34 55.98,-33.89 141.83,-56.54 216.18,-32.56 147.04,47.43 195.33,220.23 163.36,355.14 -16.87,71.19 -52.07,129.28 -87.69,179.21 -16.47,23.08 -30.66,37.78 -45.47,57.16 -45.35,59.34 -180.22,171.04 -226.33,204.93 -24.16,17.76 -135.22,96.85 -158.8,107.05zm12.17 -685.74c-107.21,13.17 -89.36,177.31 20.64,163.01 41.64,-5.41 76.93,-43.78 70.39,-92.91 -5.38,-40.48 -43.06,-75.99 -91.04,-70.1zm228.69 -95.4c-40.54,7.56 -74.98,45.45 -66.92,94.72 17.55,107.36 183.33,79.34 162.06,-29.55 -7.72,-39.53 -46.54,-74.23 -95.14,-65.17zm-511.54 -45.67c-116.77,28.06 -74.71,202.34 41.55,174.71 41.37,-9.84 78.73,-54.04 66.01,-107.9 -9.92,-42.02 -52.62,-80 -107.56,-66.8zm269.41 646.09c5.56,-5.84 70.65,-170.47 83.22,-203.76 8.7,-23.03 14.83,-20.52 2.39,-40.97 -12.55,-20.63 -34.72,-48.27 -63.11,-53.39 -37.73,-6.8 -60.29,23.04 -73.65,39.95 -27.02,34.19 -17.48,36.18 -3.78,80.89 7.68,25.05 49.12,165.95 54.92,177.29zm92.28 38.39c9.26,-4.05 0.41,0.75 5.55,-3.32 1.81,-1.44 3.33,-3.24 4.88,-4.93 3.57,-3.87 4.1,-4.35 8.01,-7.8l52.2 -48.25c12.1,-10.56 21.61,-21.68 33.84,-32.3 5.81,-5.04 11.92,-9.64 16.96,-15.03l119.72 -113.02c12.68,-14.36 22.85,-20.18 33.54,-31.96 -3,-21.24 -18.67,-63.08 -27.22,-82.12 -12.43,-27.65 -33.73,-65.61 -56,-80.97 -50.86,-35.1 -91.45,4.32 -116.97,51.3 -56,103.07 -68.67,238.26 -74.49,368.38zm-162.95 12.36c3.93,-118.24 -29.71,-374.5 -122.08,-455.26 -101.89,-89.09 -179.8,157.38 -175.95,173.84 1.43,6.13 19.12,19.86 23.81,23.98l99.39 94.44c7.34,7.73 17.13,15.12 25.49,22.56 22.91,20.36 46.48,46.1 73.87,69.88 15,13.02 63.44,62.66 75.47,70.56z"/>
 </g>
</svg>
